
<svg xmlns="http://www.w3.org/2000/svg" viewBox="0 0 48 48" width="48px" height="48px">
  <path fill="#1877f2" d="M48,24C48,10.745,37.255,0,24,0S0,10.745,0,24c0,11.979,8.776,21.908,20.25,23.708 v-16.77h-6.094V24h6.094v-5.288c0-6.014,3.583-9.337,9.065-9.337c2.625,0,5.372,0.469,5.372,0.469v5.906h-3.026 c-2.981,0-3.911,1.85-3.911,3.748V24h6.656l-1.064,6.938H27.75v16.77C39.224,45.908,48,35.979,48,24z"/>
  <path fill="#ffffff" d="M33.342,30.938L34.406,24H27.75v-4.502c0-1.898,0.93-3.748,3.911-3.748h3.026V9.844 c0,0-2.747-0.469-5.372-0.469c-5.482,0-9.065,3.322-9.065,9.337V24h-6.094v6.938h6.094v16.77c1.221,0.192,2.471,0.292,3.75,0.292 s2.529-0.1,3.75-0.292v-16.77H33.342z"/>
</svg>
