
<svg xmlns="http://www.w3.org/2000/svg" viewBox="0 0 48 48" width="48px" height="48px">
  <path fill="#6933FF" d="M24,4C12.954,4,4,12.954,4,24s8.954,20,20,20s20-8.954,20-20S35.046,4,24,4z"/>
  <path fill="#FFFFFF" d="M24,14c-5.514,0-10,4.486-10,10s4.486,10,10,10s10-4.486,10-10S29.514,14,24,14z M24,30c-3.309,0-6-2.691-6-6s2.691-6,6-6s6,2.691,6,6S27.309,30,24,30z"/>
  <path fill="#FFFFFF" d="M18,10h12v4H18V10z"/>
  <path fill="#FFFFFF" d="M18,34h12v4H18V34z"/>
  <path fill="#FFFFFF" d="M34,18h4v12h-4V18z"/>
  <path fill="#FFFFFF" d="M10,18h4v12h-4V18z"/>
</svg>
