
<svg xmlns="http://www.w3.org/2000/svg" viewBox="0 0 48 48" width="48px" height="48px">
  <path fill="#7AB55C" d="M33.7,13.1c0-0.1,0-0.2-0.1-0.3c-0.1-0.1-0.2-0.1-0.3-0.1c-1-0.1-2.5-0.1-3.6,0c-0.3-0.9-0.8-1.7-1.4-2.3 c-1.3-1.2-3-1.9-4.8-1.9h-0.2c-0.7-0.9-1.5-1.3-2.2-1.3c-5.5,0-8.1,6.9-8.9,10.4c-2.1,0.7-3.6,1.1-3.8,1.2C7.8,19.1,7.8,19.1,7.8,19l-4.4,34	c0,0,0,0.1,0,0.1c0,0,0,0,0,0h0c0,0,0,0,0,0H29c0,0,0,0,0,0c0,0,0,0,0,0h0c0,0,0-0.1,0-0.1L33.7,13.1	C33.7,13.2,33.7,13.2,33.7,13.1z"/>
  <path fill="#FFFFFF" d="M25.2,14.3c-0.6,0.2-1.3,0.4-2,0.6c0,0-0.1-0.7-0.5-1.3c-0.5-0.7-1.5-1-1.5-1s-2.4-0.2-5,0.5	c0,0-1.8-1.8-3.2-1.5c-0.1,0.5-0.5,2.3-1.1,4.5c0.2-0.1,0.4-0.1,0.5-0.2c1.6-0.5,3.2-0.7,3.9-0.8c1.3-0.1,1.6,0,1.6,0 c0.3,0.5-0.3,3.1-0.5,3.8c-0.3,1.1-1.1,3.9-1.8,5.1c-0.6,1.1-1.1,1.1-1.5,0.9c-0.3-0.2-0.9-1-0.9-1c-0.4-0.7-0.5-2-0.5-2.8	c0-0.4,0-0.9,0-1.5c-1.1,0.3-2.3,0.8-3.5,1.2c0,0.5,0,1,0,1.5c0,2.2,0.5,4.5,1.6,5.5c1.3,1.2,3,0.9,3.9-0.2c0.5-0.7,1.5-2.4,1.9-3.2 c0.3-0.6,1.4-3.2,1.4-3.2l3.8-1c0,0,0.2,2,1.3,3c0.7,0.7,1.7,0.5,1.7,0.5s2.7-0.3,2.3-4.5C26.7,16.6,25.2,14.3,25.2,14.3z"/>
  <path fill="#6EA44F" d="M23.9,12.5c-0.8,0-1.7,0.1-2.6,0.3l0,0c0,0,0.1,0.8,0.5,1.3c0.7,0,1.3-0.1,2-0.2c0,0,1.4,1.6,1.4,4.6 c0.5,0.1,0.9,0.3,1.3,0.4c0.3-2.2,0.1-4.4-0.6-6.2C25.4,12.6,24.7,12.5,23.9,12.5z"/>
  <polygon fill="#FFFFFF" points="20.4,17.2 19.8,19.9 17.5,20.6 20.1,20.6"/>
</svg>
