
<svg xmlns="http://www.w3.org/2000/svg" viewBox="0 0 48 48" width="48px" height="48px">
  <path fill="#96588A" d="M24,4C12.954,4,4,12.954,4,24s8.954,20,20,20s20-8.954,20-20S35.046,4,24,4z"/>
  <path fill="#FFFFFF" d="M24,11.1c-9.1,0-16.4,7.4-16.4,16.4c0,9.1,7.4,16.4,16.4,16.4c9.1,0,16.4-7.4,16.4-16.4C40.4,18.5,33,11.1,24,11.1z M13.7,29.9l1-3h2.8l-1.1,3.2c-0.2,0.7-0.9,1.2-1.6,1.2h-0.5C13.7,31.1,13.5,30.4,13.7,29.9z M34.3,29.9l1-3h2.8l-1.1,3.2c-0.2,0.7-0.9,1.2-1.6,1.2h-0.5C34.3,31.1,34.1,30.4,34.3,29.9z"/>
  <path fill="#FFFFFF" d="M26.5,20.9L26,20.4c-0.6-0.6-1.6-0.6-2.2,0l-1.7,1.7c-0.6,0.6-0.6,1.6,0,2.2l0.5,0.5l-2,2l-2-2L19.1,24c0.6-0.6,0.6-1.6,0-2.2l-1.7-1.7c-0.6-0.6-1.6-0.6-2.2,0L14.7,21l-1.2-3.2H11l3.7,10.3c0.1,0.3,0.4,0.5,0.8,0.5h0.3c0.3-0.1,0.5-0.3,0.6-0.6l1-3c0.1-0.4,0.5-0.6,0.9-0.6h1.3c0.4,0,0.8,0.3,0.9,0.6l1,3c0.1,0.3,0.3,0.5,0.6,0.6h0.3c0.3,0,0.6-0.2,0.8-0.5L26.9,18h-2.4L26.5,20.9z"/>
  <path fill="#FFFFFF" d="M31.2,18l-3.7,10.3c-0.1,0.3-0.4,0.5-0.8,0.5h-0.3c-0.3-0.1-0.5-0.3-0.6-0.6l-1-3c-0.1-0.4-0.5-0.6-0.9-0.6h-0.6l3.4,9.3c0.1,0.3,0.4,0.5,0.8,0.5h0.3c0.3-0.1,0.5-0.3,0.6-0.6l4.2-11.7h-2.5L31.2,18z"/>
</svg>
