
<svg xmlns="http://www.w3.org/2000/svg" viewBox="0 0 48 48" width="48px" height="48px">
  <path fill="#21759B" d="M24,4C12.954,4,4,12.954,4,24s8.954,20,20,20s20-8.954,20-20S35.046,4,24,4z"/>
  <path fill="#FFFFFF" d="M24,8c-8.822,0-16,7.178-16,16s7.178,16,16,16s16-7.178,16-16S32.822,8,24,8z M8.766,24c0-2.049,0.451-3.991,1.255-5.738l6.915,18.932C11.952,34.429,8.766,29.592,8.766,24z M24,39.234c-1.389,0-2.731-0.201-4.001-0.573l4.252-12.349l4.354,11.932c0.029,0.071,0.063,0.136,0.101,0.198C27.185,39.004,25.627,39.234,24,39.234z M26.545,17.606c0.851-0.042,1.621-0.134,1.621-0.134c0.764-0.091,0.673-1.215-0.09-1.171c0,0-2.293,0.18-3.772,0.18c-1.392,0-3.731-0.18-3.731-0.18c-0.764-0.044-0.855,1.124-0.09,1.171c0,0,0.723,0.091,1.487,0.134l2.211,6.056l-3.103,9.305l-5.159-15.361c0.853-0.042,1.622-0.134,1.622-0.134c0.765-0.091,0.674-1.215-0.09-1.171c0,0-2.293,0.18-3.772,0.18c-0.266,0-0.579-0.004-0.914-0.011C15.169,12.91,19.325,10.766,24,10.766c3.498,0,6.686,1.339,9.082,3.533c-0.058-0.003-0.114-0.01-0.174-0.01c-1.392,0-2.38,1.214-2.38,2.516c0,1.17,0.673,2.159,1.392,3.329c0.541,0.948,1.171,2.159,1.171,3.911c0,1.214-0.466,2.628-1.08,4.588l-1.414,4.725L26.545,17.606z M37.305,18.666c1.083,1.975,1.695,4.238,1.695,6.643c0,5.131-2.785,9.612-6.932,12.041l4.254-12.295c0.796-1.983,1.058-3.566,1.058-4.978C37.38,19.59,37.353,19.121,37.305,18.666z"/>
</svg>
